# xmcd CD database file
#
# Track frame offsets:
#	182
#	12077
#	21705
#	31557
#	42137
#	52245
#	65425
#	79400
#	94085
#	107410
#	125240
#	142632
#	153522
#	165775
#	176732
#	191592
#	204257
#	214755
#	227362
#	240492
#	256782
#
# Disc length: 3665 seconds
#
# Revision: 0
# Processed by: cddbd v1.4PL0 Copyright (c) Steve Scherf et al.
# Submitted via: CDex 1.50beta9
#
DISCID=0b0e4f15
DTITLE=Crystal Gayle - Cystal Gayle Sings Her Hits
DYEAR=1995
DGENRE=Country
TTITLE0=Don't Make My Brown Eyes Blue
TTITLE1=Funny
TTITLE2=Paintin' This Old Town Blue
TTITLE3=High Time
TTITLE4=Wrong Road Again
TTITLE5=I'll Do It All Over Again
TTITLE6=River Road
TTITLE7=Cry Me A River
TTITLE8=Dreaming My Dreams With You
TTITLE9=One More Time (Karneval)
TTITLE10=You Never Miss A Real Good Thing
TTITLE11=Ready For The Times To Get Better
TTITLE12=What I've Been Needing
TTITLE13=All I Wanna Do In Life
TTITLE14=Love To, Can't Do
TTITLE15=Come Home Daddy
TTITLE16=They Come Out At Night
TTITLE17=Hands
TTITLE18=Too Good To Throw Away
TTITLE19=Going Down Slow
TTITLE20=We Must Believe In Magic
EXTD=YEAR: 1995
EXTT0=
EXTT1=
EXTT2=
EXTT3=
EXTT4=
EXTT5=
EXTT6=
EXTT7=
EXTT8=
EXTT9=
EXTT10=
EXTT11=
EXTT12=
EXTT13=
EXTT14=
EXTT15=
EXTT16=
EXTT17=
EXTT18=
EXTT19=
EXTT20=
PLAYORDER=
